<?xml version="1.0" encoding="utf-8"?>
<!-- Generator: Adobe Illustrator 21.0.0, SVG Export Plug-In . SVG Version: 6.00 Build 0)  -->
<svg version="1.1" id="Camada_1" xmlns="http://www.w3.org/2000/svg" xmlns:xlink="http://www.w3.org/1999/xlink" x="0px" y="0px"
	 viewBox="0 0 296 302" style="enable-background:new 0 0 296 302;" xml:space="preserve">
<style type="text/css">
	.st0{fill:#BFBFBF;stroke:#000000;stroke-width:3;stroke-miterlimit:10;}
	.st1{fill:#DDD6C3;stroke:#000000;stroke-width:3;stroke-miterlimit:10;}
	.st2{fill:#FFFFFF;stroke:#000000;stroke-miterlimit:10;}
</style>
<image style="overflow:visible;opacity:8.000000e-02;enable-background:new    ;" width="234" height="216" xlink:href="2F895EB6.png"  transform="matrix(1 0 0 1 28 44)">
</image>
<path class="st0" d="M116.6,56.2L91.5,71.7c-0.3,0.2-0.6,0.4-0.9,0.7L78.1,83.9c-0.1,0.1-0.2,0.2-0.3,0.3l-16.6,17.6
	c-0.2,0.2-0.3,0.4-0.5,0.6l-11.6,16.4c-0.1,0.2-0.2,0.3-0.3,0.5l-15.6,27.2c-0.2,0.4-0.3,0.8-0.5,1.1l-0.9,2.8
	c-1.7,5.4,2.5,10.9,8.2,10.6l35.2-1.5c0.1,0,0.2,0,0.3,0l28.6-3c0.2,0,0.3,0,0.5-0.1l18.1-3.5l2.4-0.5c0.1,0,0.2-0.1,0.4-0.1l26.8-7
	l22.8-5.9c0.2,0,0.3-0.1,0.5-0.1l23.6-3.9c0.1,0,0.2,0,0.3,0l27.6-3c0.2,0,0.3-0.1,0.5-0.1l23.5-4.7c0.8-0.2,1.5-0.5,2.2-0.9l0,0
	c3.5-2.5,4.7-7.1,2.9-11l-4.6-9.8c-0.2-0.3-0.4-0.7-0.6-1l-12.3-16.1c-0.2-0.3-0.5-0.5-0.7-0.8l-18.4-16.4c-0.2-0.1-0.3-0.3-0.5-0.4
	l-16.3-11.5c-0.3-0.2-0.6-0.3-0.9-0.5L186,51.7c-0.4-0.1-0.9-0.3-1.3-0.4l-18.8-3.8c-0.4,0-0.7-0.1-1.1-0.1h-13.3
	c-0.1,0-0.2,0-0.4,0l-15,0.9c-0.5,0-1,0.1-1.5,0.3l-17.3,7C117.2,56,116.9,56.1,116.6,56.2z"/>
<path class="st1" d="M139.6,179.5l20.7-2c0.1,0,0.1,0,0.2,0l11.6-1.9c0.2,0,0.3,0,0.5,0h3.1c1,0,2-0.5,2.6-1.4l0,0
	c0.7-1,0.7-2.3,0.1-3.3l-2-3.3l-4.6-8.3c-0.3-0.5-0.4-1-0.4-1.5v-4.1c0-0.1,0-0.2,0-0.3l-0.8-8.9c-0.2-1.9-2-3.2-3.8-2.7l-39.6,10.3
	c-1,0.3-1.9,1.1-2.2,2.1l-5.8,19c-0.4,1.4,0.2,2.9,1.4,3.6l4.1,2.4c0.5,0.3,1,0.4,1.5,0.4h13C139.5,179.5,139.5,179.5,139.6,179.5z"
	/>
<path class="st1" d="M128.7,253.7l19.4,2.8c0.2,0,0.5,0,0.7,0h17.4c0.2,0,0.4,0,0.6,0l15.9-1.9c0.6-0.1,1.1-0.2,1.6-0.5l10.2-5.1
	c0.7-0.3,1.3-0.8,1.7-1.4l1.4-1.8c0.6-0.8,1-1.8,1-2.9v-2.1c0-0.8-0.2-1.6-0.6-2.3l-4.3-7.7c-0.1-0.1-0.2-0.3-0.2-0.4l-2.9-6.8
	l-12.9-26.9c0-0.1-0.1-0.2-0.1-0.2l-7.1-17.1c-0.8-1.9-2.7-3.1-4.8-3l-35.6,2.8c-2.5,0.2-4.4,2.3-4.4,4.8v12.4c0,0.1,0,0.2,0,0.3
	l-1,17.4c0,0.3-0.1,0.7-0.2,1l-2.3,8.6c-0.3,1.1-0.5,2.8-0.5,4v4v7v5.2c0,0.5,0.1,1,0.2,1.5l1.3,3.8c0.3,0.9,0.9,1.7,1.7,2.3
	l1.8,1.4C127.2,253.2,127.9,253.6,128.7,253.7z"/>
<path class="st2" d="M169.7,115.6c0.2,2.6,0.6,0.5,0,4.3c-1.5,8.9-10.4,15.5-18.6,15.6c-10.1,0.1-21.3-8.4-17.7-20.8
	c3.2-11,7.9-20.8,17.7-20.8C160.9,94,168.7,104.2,169.7,115.6z"/>
<path class="st2" d="M112.7,99.9c0.2,2.1,0.6,0.4,0,3.5c-1.4,7.2-10.3,12.5-18.4,12.6c-10,0.1-21.2-6.7-17.6-16.7
	c3.2-8.8,7.9-16.7,17.6-16.7C104,82.5,111.8,90.7,112.7,99.9z"/>
<path class="st2" d="M73.4,143.7c-1.5,1.7,0,0.5-2.6,2.7c-6,5-13.6,5.6-16.9,2.4c-4.1-3.9-3.6-13.6,5.4-19.9
	c7.9-5.6,15.7-9.8,19.7-6S79.9,136.2,73.4,143.7z"/>
<path class="st2" d="M162.3,68.5c0,1.2,0.6,0.3-0.4,1.9c-2.2,3.6-11.4,4.9-19.4,3.4c-9.8-1.8-20.1-7.6-15.6-12.3
	c4-4.2,9.4-7.6,19-5.8S162.3,63.3,162.3,68.5z"/>
<path class="st2" d="M232.7,97.9c0.2,2.1,0.6,0.4,0,3.5c-1.4,7.2-10.1,12.5-18.1,12.6c-9.8,0.1-20.8-6.7-17.3-16.7
	c3.1-8.8,7.7-16.7,17.3-16.7C224.1,80.5,231.8,88.7,232.7,97.9z"/>
</svg>
